<svg xmlns="http://www.w3.org/2000/svg" viewBox="0 0 14 14.24"><defs><style>.cls-1{fill:#2ec27e;}.cls-2{fill:#e01b24;}.cls-3{fill:#2e3436;}.cls-4{fill:#fff;}</style></defs><g id="Layer_2" data-name="Layer 2"><g id="svg7384"><path class="cls-1" d="M11.85,4.19H8.92a2.15,2.15,0,0,0-2.1,2.15V9.46a2.48,2.48,0,0,0-1.08-.25,2.52,2.52,0,1,0,2.52,2.52V6.34A.7.7,0,0,1,9,5.62h2.88a.7.7,0,0,1,.71.72V9.46a2.44,2.44,0,0,0-1.07-.25A2.52,2.52,0,1,0,14,11.72V6.34A2.16,2.16,0,0,0,11.85,4.19Zm-5,7.54A1.07,1.07,0,0,1,5.74,12.8a1.08,1.08,0,1,1,1.08-1.08Zm4.67,1.07a1.08,1.08,0,1,1,1.07-1.08A1.06,1.06,0,0,1,11.49,12.8Z"/><path class="cls-2" d="M10.05,4.19v-2a.7.7,0,0,0-.72-.71H5a.7.7,0,0,0-.72.71V5.74A.7.7,0,0,0,5,6.46h4.3a.7.7,0,0,0,.72-.72V5.62h1.44v.12A2.18,2.18,0,0,1,9.33,7.9H5A2.17,2.17,0,0,1,2.87,5.74v-1L.46,7.21H0V.75H.49L2.87,3.22V2.15A2.17,2.17,0,0,1,5,0h4.3a2.17,2.17,0,0,1,2.16,2.15v2Z"/><path id="path4969" class="cls-3" d="M2.14,7.81V9.32A.18.18,0,0,1,2,9.5H.46v.84H2a.18.18,0,0,1,.17.17V12H3V10.51a.18.18,0,0,1,.18-.17H4.67V9.5H3.16A.18.18,0,0,1,3,9.32V7.81Z"/><path class="cls-4" d="M3,12.11H2.14A.09.09,0,0,1,2.05,12V10.51A.08.08,0,0,0,2,10.43H.46a.09.09,0,0,1-.09-.09V9.5a.09.09,0,0,1,.09-.09H2a.09.09,0,0,0,.08-.09V7.81a.09.09,0,0,1,.09-.09H3a.09.09,0,0,1,.09.09V9.32a.09.09,0,0,0,.08.09H4.67a.09.09,0,0,1,.09.09v.84a.09.09,0,0,1-.09.09H3.15a.08.08,0,0,0-.08.08V12A.09.09,0,0,1,3,12.11Zm-.75-.18h.66V10.51a.26.26,0,0,1,.26-.26H4.58V9.59H3.15a.27.27,0,0,1-.26-.27V7.9H2.23V9.32A.27.27,0,0,1,2,9.59H.55v.66H2a.26.26,0,0,1,.26.26Z"/></g></g></svg>